<svg id="Layer_1" data-name="Layer 1" xmlns="http://www.w3.org/2000/svg" viewBox="0 0 147.44 396.04"><defs><style>.cls-1{fill:#b71b31;}.cls-2{fill:#3b2314;}.cls-3{fill:#ffd800;}.cls-4{fill:#da8d54;}.cls-5{fill:#f89a1c;}.cls-6{fill:#603813;}</style></defs><title>bai-recolor</title><path class="cls-1" d="M114.38,126.13c-2.84-23.47-6.31-47-6.31-70.63,0-52-29.49-54.29-38.13-54.65-8.64.36-38.25,6.7-36,51.49,2.64,51.74-10.33,53.45-9.19,73.69S3,208.27,0,216.1c0,0,29.85,10,69.94,12.14,19,1,52.71-9.13,52.71-9.13,5.71-14.69.31-34.85-2.11-49.71C119,160,117,150.59,116.07,141.12,115.56,136.12,115,131.13,114.38,126.13Z"/><path class="cls-2" d="M41.9,49s-4.65,13.54-3.23,21.83,5.66,12.73,5.66,12.73,48.91,3.84,50.93,2.63,12.33-5.86,13.14-15S103.34,61,102.33,55.7,88,45.59,87,45.19,41.9,49,41.9,49Z"/><path class="cls-3" d="M98.67,31.86c-0.44-1.31-.85-2.63-1.2-4C93.53,13.05,80.19-.59,66.25,0S45.64,11.54,40.48,28.21a50.55,50.55,0,0,0-1.7,18.86A7.66,7.66,0,0,0,43.11,47a45.13,45.13,0,0,1,5-1.17,38.93,38.93,0,0,1-3.72-9.74c-1.82-9.09,1.21-8.49,1.21-8.49s18.19-8.49,20.61-20c0,0,8.18,18.19,18.19,20.92a30.19,30.19,0,0,1,.93,9.15A55.34,55.34,0,0,0,98.67,31.86Z"/><path class="cls-4" d="M30.58,97.33S5.12,170.08,3.5,189.08s9.7,8.89,10.11,2,0.81-4,.81-4,2,5.26,4.85,2.83-0.4-8.89-.4-8.89,19-67.5,21.42-77.2S30.58,97.33,30.58,97.33Z"/><path class="cls-4" d="M52.81,129.26s0.81,24.66-3.64,35.16S60.49,183,75,181.4s23.85-13.74,23.85-13.74-8.08-7.68-8.08-19a190.1,190.1,0,0,1,1.21-21Z"/><path class="cls-3" d="M77.47,69.44s15.76,1.82,20.82,2.22,14.35,10.51,14.35,10.51-9.3,15-9.5,15.56-2.43,30.72-3.44,35-51.33,2-53.15,1.62-2.63-17-3.44-22.84-3,.61-3,0.61S30,103.8,28,97.73s7.88-21.63,17.58-25.67S74.84,69,77.47,69.44Z"/><path class="cls-1" d="M54.63,70.45L47,72.07S51.6,83.38,65.75,83A25.49,25.49,0,0,0,86.36,71.26S75,68.23,54.63,70.45Z"/><path class="cls-4" d="M63.52,59.33a24.47,24.47,0,0,1-1.62,8.29,9.48,9.48,0,0,1-4.65,5.05V75.5a15,15,0,0,0,11.32,3.64c7.07-.61,12.33-5.66,12.33-5.66l-0.2-2.83s-8.69.2-9.9-3a27.12,27.12,0,0,1-1.21-7.88Z"/><path class="cls-4" d="M66.35,4.61v0l-0.61,0-0.61,0v0c-12.46,1-22.23,17-19.42,36.63C48.15,58.34,61.09,61.9,65.14,62.61v0.16l0.61-.07,0.61,0.07V62.61c4-.7,17-4.27,19.42-21.36C88.58,21.57,78.81,5.59,66.35,4.61Z"/><ellipse class="cls-4" cx="45.64" cy="36.85" rx="3.03" ry="7.43"/><ellipse class="cls-4" cx="86.26" cy="36.85" rx="3.03" ry="7.43"/><path class="cls-2" d="M45.64,29.42s18.19-8.49,20.61-20c0,0,8.18,18.19,18.19,20.92,0,0,3.33,10.61-2.43,23.34s2.12,27.59,2.12,27.59S92,66.41,102,62.47s-0.61-17.89-4.55-32.74S80.19,1.23,66.25,1.84,45.64,13.36,40.48,30,41.39,69.44,49,76.41s9.7,8.18,9.7,8.18S63.22,74,59,66.11,46.24,47,44.42,37.91,45.64,29.42,45.64,29.42Z"/><path class="cls-4" d="M102.93,90.46s0.4-8.08,6.06-7.68,24.66,31.12,24.66,31.12,4.45-45.27,4.45-47.29S129.2,61,128.8,54.08s4.85,1.21,4.85,1.21-4-14.15,0-17,14.55-3.64,13.74,8.89l-0.81,12.53s0.41,58.2-6.87,67.5S102.93,90.46,102.93,90.46Z"/><path class="cls-4" d="M47.15,370.56s-5.25,13.34-15,15.36-17.78,4.85-9.7,8.89,23-3.23,28.7-3.23,8.89,2,8.89-8.08-3.64-14.55-3.64-14.55Z"/><path class="cls-4" d="M96.39,370.56s5.25,13.34,15,15.36,17.78,4.85,9.7,8.89-23-3.23-28.7-3.23-8.89,2-8.89-8.08,3.64-14.55,3.64-14.55Z"/><path class="cls-3" d="M49.17,164.43s6.47,15,24.25,11.72,23-10.51,23-10.51,5.66,1.21,6.47,3.64,19.4,173,23.85,182.7-29.1,28.7-38,21.83S73.43,365.31,56,370.57s-26.68,1.21-36.38-17.78,9.3-86.5,8.89-106.3S29.77,167.26,49.17,164.43Z"/><path class="cls-3" d="M42.71,376.63s6.06,3.64,10.91,2.43,6.87-3.23,6.87-3.23l1.21,2.43s-1.21,4.45-8.49,4a40.59,40.59,0,0,1-13.34-3.23S40.68,376.22,42.71,376.63Z"/><path class="cls-5" d="M83.93,71.06S46.75,143.41,39.88,162.4s-12.93,63.86-12.13,74,8.89-7.28,40.82-31.93S110.2,181,107,174.53s-6.47-4.45-9.3-14.15-26.27,9.3-27.49,8.49S94,100.16,96.87,91.67s10.91-12.93,12.53-12.93S95.65,63,82.32,70.25Z"/><path class="cls-1" d="M89,68.37l-0.58,5.52s-13.74,26.68-34,72.75c-16.32,37.22-23.68,64.41-26.12,76.9-0.25,2.71-.44,5.16-0.54,7.25,3.55,1.39,29.36-23.18,47.27-38.48,15.43-13.18,26.25-18.94,30-20.75-2.39-2.91-4.74-3.33-6.88-9.53-3.62,0-9.32,1.09-17.1,5.62-14.55,8.49-19.4,14.55-21.42,16.17S41.9,208.08,41.9,208.08l15.36-25.87L45.94,196.36s9.3-15.76,13.74-19.81a86.63,86.63,0,0,0,6.87-6.87S91.21,97.73,95.65,84.8c2.28-6.65,6.6-8.7,10.58-9.73C102.44,71.93,95.85,68,89,68.37Z"/><path class="cls-6" d="M55.79,35.94A5.15,5.15,0,0,1,61,39.73a4.06,4.06,0,0,0,.1-0.83c0-2.55-2.38-4.62-5.3-4.62s-5.31,2.07-5.31,4.62a4,4,0,0,0,.1.83A5.15,5.15,0,0,1,55.79,35.94Z"/><path class="cls-6" d="M74.59,35.79a5.15,5.15,0,0,1,5.21,3.79,4,4,0,0,0,.1-0.83c0-2.55-2.38-4.62-5.3-4.62s-5.31,2.07-5.31,4.62a4.06,4.06,0,0,0,.1.83A5.15,5.15,0,0,1,74.59,35.79Z"/><path class="cls-6" d="M69.89,29.73s3-2.88,5.15-2.43S74.43,30.33,69.89,29.73Z"/><path class="cls-6" d="M53.52,29.73s3-2.88,5.15-2.43S58.06,30.33,53.52,29.73Z"/><path class="cls-6" d="M65.95,54.13c-4.45,0-8.12-1.68-8.7-3.87a2.34,2.34,0,0,0-.09.61c0,2.47,3.94,4.47,8.79,4.47s8.79-2,8.79-4.47a2.34,2.34,0,0,0-.09-0.61C74.07,52.45,70.4,54.13,65.95,54.13Z"/><path class="cls-6" d="M64.31,44s-1.44,1.22-1,2.11a4.82,4.82,0,0,0,1.44,1.55Z"/></svg>